<?xml version="1.0" standalone="no"?>
<!DOCTYPE svg PUBLIC "-//W3C//DTD SVG 20010904//EN"
 "http://www.w3.org/TR/2001/REC-SVG-20010904/DTD/svg10.dtd">
<svg version="1.0" xmlns="http://www.w3.org/2000/svg"
 width="700.000000pt" height="700.000000pt" viewBox="0 0 700.000000 700.000000"
 preserveAspectRatio="xMidYMid meet">
<metadata>
Created by potrace 1.14, written by Peter Selinger 2001-2017
</metadata>
<g transform="translate(0.000000,700.000000) scale(0.100000,-0.100000)"
fill="#000000" stroke="none">
<path d="M1225 5251 c96 -193 181 -351 188 -352 6 0 19 -2 27 -4 8 -1 31 -5
52 -9 101 -16 236 -89 324 -176 112 -109 187 -249 234 -435 30 -117 36 -159
46 -322 l7 -103 -702 0 -701 0 0 -1225 0 -1225 1225 0 1226 0 -4 1318 c-2 724
-6 1328 -9 1342 -3 14 -8 41 -12 60 -27 167 -108 404 -198 583 -109 214 -219
367 -377 525 -173 172 -361 285 -572 343 -80 22 -103 23 -507 27 l-423 3 176
-350z"/>
<path d="M4375 5251 c96 -193 178 -351 183 -352 282 -25 513 -224 616 -529 23
-69 47 -171 60 -260 3 -19 9 -86 12 -147 l6 -113 -701 0 -701 0 0 -1225 0
-1225 1225 0 1226 0 -4 1318 c-2 724 -7 1335 -11 1357 -79 414 -237 756 -480
1040 -146 171 -287 285 -461 373 -95 47 -152 68 -280 98 -16 4 -218 9 -448 11
l-418 4 176 -350z"/>
</g>
</svg>
